<svg width="20" height="20" viewBox="0 0 20 20" fill="none" xmlns="http://www.w3.org/2000/svg">
<path d="M10.8334 6.66667H9.16675V10.8333H13.3334V9.16667H10.8334V6.66667Z" fill="#BD9964"/>
<path d="M16.6659 10C16.6659 7.53917 15.3226 5.39167 13.3334 4.23667V2.50001C13.3334 2.27899 13.2456 2.06703 13.0893 1.91075C12.933 1.75447 12.7211 1.66667 12.5001 1.66667H7.50006C7.27905 1.66667 7.06709 1.75447 6.91081 1.91075C6.75453 2.06703 6.66673 2.27899 6.66673 2.50001V4.23584C4.67756 5.39084 3.33423 7.53917 3.33423 10C3.33523 11.1916 3.65546 12.3611 4.2616 13.387C4.86774 14.4128 5.73767 15.2576 6.7809 15.8333H6.66673V17.5342C6.66673 17.7552 6.75453 17.9671 6.91081 18.1234C7.06709 18.2797 7.27905 18.3675 7.50006 18.3675H12.5001C12.7211 18.3675 12.933 18.2797 13.0893 18.1234C13.2456 17.9671 13.3334 17.7552 13.3334 17.5342V15.8333H13.2176C14.2613 15.258 15.1317 14.4134 15.7382 13.3875C16.3446 12.3615 16.665 11.1918 16.6659 10ZM9.99923 14.9992C8.67392 14.9976 7.40334 14.4704 6.46628 13.5332C5.52923 12.596 5.00222 11.3253 5.0009 10C5.00222 8.67469 5.52923 7.40403 6.46628 6.46682C7.40334 5.5296 8.67392 5.00238 9.99923 5.00084C12.7576 5.00084 14.9992 7.24334 14.9992 10C14.9979 11.3256 14.4707 12.5965 13.5333 13.5338C12.5958 14.471 11.3248 14.9981 9.99923 14.9992Z" fill="#BD9964"/>
</svg>
