<svg width="50" height="50" viewBox="0 0 50 50" fill="none" xmlns="http://www.w3.org/2000/svg">
<path d="M13.5416 20.8333C13.077 20.8333 12.6312 20.9041 12.1874 20.9687C12.3312 20.4854 12.4791 19.9937 12.7166 19.5521C12.9541 18.9104 13.3249 18.3541 13.6937 17.7937C14.002 17.1875 14.5458 16.7771 14.9458 16.2583C15.3645 15.7541 15.9354 15.4187 16.3874 15C16.8312 14.5625 17.4124 14.3437 17.8749 14.0354C18.3583 13.7583 18.7791 13.4521 19.2291 13.3062L20.352 12.8437L21.3395 12.4333L20.3291 8.39581L19.0854 8.69581C18.6874 8.79581 18.202 8.91248 17.6499 9.05206C17.0854 9.15623 16.4833 9.44165 15.8124 9.70206C15.1499 9.9979 14.3833 10.1979 13.6708 10.6729C12.9541 11.1271 12.127 11.5062 11.3979 12.1146C10.6916 12.7416 9.83952 13.2854 9.21035 14.0833C8.52285 14.8291 7.84369 15.6125 7.3166 16.5041C6.70619 17.3541 6.2916 18.2875 5.8541 19.2104C5.45827 20.1333 5.13952 21.0771 4.8791 21.9937C4.38535 23.8312 4.16452 25.5771 4.0791 27.0708C4.00827 28.5666 4.04994 29.8104 4.13744 30.7104C4.16869 31.1354 4.22702 31.5479 4.26869 31.8333L4.32077 32.1833L4.37494 32.1708C4.74548 33.9017 5.59849 35.4923 6.83528 36.7587C8.07207 38.025 9.64211 38.9154 11.3638 39.3267C13.0854 39.738 14.8884 39.6535 16.564 39.083C18.2397 38.5124 19.7195 37.4791 20.8325 36.1027C21.9454 34.7262 22.6459 33.0627 22.8529 31.3048C23.0599 29.5468 22.765 27.7661 22.0023 26.1688C21.2396 24.5714 20.0402 23.2226 18.543 22.2784C17.0457 21.3342 15.3117 20.8332 13.5416 20.8333ZM36.4583 20.8333C35.9937 20.8333 35.5479 20.9041 35.1041 20.9687C35.2479 20.4854 35.3958 19.9937 35.6333 19.5521C35.8708 18.9104 36.2416 18.3541 36.6104 17.7937C36.9187 17.1875 37.4624 16.7771 37.8624 16.2583C38.2812 15.7541 38.852 15.4187 39.3041 15C39.7478 14.5625 40.3291 14.3437 40.7916 14.0354C41.2749 13.7583 41.6958 13.4521 42.1458 13.3062L43.2687 12.8437L44.2562 12.4333L43.2458 8.39581L42.002 8.69581C41.6041 8.79581 41.1187 8.91248 40.5666 9.05206C40.002 9.15623 39.3999 9.44165 38.7291 9.70206C38.0687 9.99998 37.2999 10.1979 36.5874 10.675C35.8708 11.1291 35.0437 11.5083 34.3145 12.1166C33.6083 12.7437 32.7562 13.2875 32.127 14.0833C31.4395 14.8291 30.7604 15.6125 30.2333 16.5041C29.6229 17.3541 29.2083 18.2875 28.7708 19.2104C28.3749 20.1333 28.0562 21.0771 27.7958 21.9937C27.302 23.8312 27.0812 25.5771 26.9958 27.0708C26.9249 28.5666 26.9666 29.8104 27.0541 30.7104C27.0854 31.1354 27.1437 31.5479 27.1854 31.8333L27.2374 32.1833L27.2916 32.1708C27.6621 33.9017 28.5152 35.4923 29.7519 36.7587C30.9887 38.025 32.5588 38.9154 34.2804 39.3267C36.0021 39.738 37.805 39.6535 39.4807 39.083C41.1563 38.5124 42.6362 37.4791 43.7491 36.1027C44.862 34.7262 45.5625 33.0627 45.7696 31.3048C45.9766 29.5468 45.6817 27.7661 44.919 26.1688C44.1562 24.5714 42.9569 23.2226 41.4596 22.2784C39.9624 21.3342 38.2284 20.8332 36.4583 20.8333Z" fill="white"/>
</svg>
