<svg width="204" height="63" viewBox="0 0 204 63" fill="none" xmlns="http://www.w3.org/2000/svg">
<g id="Logo">
<g id="Barber Shop">
<path d="M4.89604 39.6H8.28804C9.78138 39.6 11.04 39.824 12.064 40.272C13.1094 40.72 13.8987 41.3493 14.432 42.16C14.9654 42.9493 15.232 43.8773 15.232 44.944C15.232 45.84 15.0614 46.6293 14.72 47.312C14.3787 47.9733 13.9414 48.5173 13.408 48.944C12.8747 49.3493 12.3094 49.6373 11.712 49.808C12.8427 49.9787 13.8134 50.352 14.624 50.928C15.456 51.504 16.0854 52.2293 16.512 53.104C16.96 53.9573 17.184 54.9173 17.184 55.984C17.184 57.1787 16.896 58.2347 16.32 59.152C15.744 60.048 14.8907 60.752 13.76 61.264C12.6507 61.7547 11.3067 62 9.72804 62H6.17604C6.17604 62 6.17604 61.904 6.17604 61.712C6.19738 61.52 6.20804 61.328 6.20804 61.136C6.20804 60.944 6.20804 60.848 6.20804 60.848H9.60004C10.7094 60.848 11.648 60.656 12.416 60.272C13.184 59.8667 13.7707 59.28 14.176 58.512C14.5814 57.744 14.784 56.8267 14.784 55.76C14.784 54.5653 14.5494 53.5947 14.08 52.848C13.632 52.1013 13.0454 51.536 12.32 51.152C11.5947 50.768 10.8054 50.512 9.95204 50.384C9.12004 50.2347 8.32004 50.16 7.55204 50.16V49.872C8.04271 49.872 8.58671 49.8187 9.18404 49.712C9.78138 49.6053 10.3574 49.392 10.912 49.072C11.4667 48.752 11.9254 48.2827 12.288 47.664C12.6507 47.024 12.832 46.192 12.832 45.168C12.832 44.208 12.6507 43.3867 12.288 42.704C11.9467 42.0213 11.424 41.5093 10.72 41.168C10.0374 40.8053 9.18404 40.624 8.16004 40.624H5.21604C5.21604 40.6027 5.18404 40.5173 5.12004 40.368C5.07738 40.1973 5.02404 40.0267 4.96004 39.856C4.91738 39.6853 4.89604 39.6 4.89604 39.6ZM6.46404 39.6V62H4.38404V39.6H6.46404ZM4.48004 59.664V62H1.92004L1.95204 61.68C1.99471 61.68 2.05871 61.68 2.14404 61.68C2.25071 61.68 2.31471 61.68 2.33604 61.68C2.89071 61.68 3.37071 61.488 3.77604 61.104C4.18138 60.6987 4.38404 60.2187 4.38404 59.664H4.48004ZM4.48004 41.936H4.38404C4.38404 41.3813 4.18138 40.912 3.77604 40.528C3.37071 40.1227 2.89071 39.92 2.33604 39.92C2.31471 39.92 2.25071 39.92 2.14404 39.92C2.05871 39.92 1.99471 39.92 1.95204 39.92L1.92004 39.6H4.48004V41.936Z" fill="white"/>
<path d="M29.0333 42.352L37.8333 61.808H35.3053L28.4893 45.2L29.0333 42.352ZM22.8573 59.664C22.6226 60.304 22.6546 60.8053 22.9533 61.168C23.252 61.5093 23.5933 61.68 23.9773 61.68H24.2333V62H18.1213V61.68C18.1213 61.68 18.164 61.68 18.2493 61.68C18.3346 61.68 18.3773 61.68 18.3773 61.68C18.8253 61.68 19.284 61.5307 19.7533 61.232C20.2226 60.912 20.628 60.3893 20.9693 59.664H22.8573ZM29.0333 42.352L29.2573 44.56L21.9293 61.904H19.9133L27.4973 45.648C27.4973 45.648 27.5506 45.52 27.6573 45.264C27.7853 45.008 27.924 44.6987 28.0733 44.336C28.244 43.952 28.3933 43.5787 28.5213 43.216C28.6493 42.8533 28.724 42.5653 28.7453 42.352H29.0333ZM32.8093 54.544V55.504H24.3293V54.544H32.8093ZM34.4413 59.664H36.8733C37.1933 60.3893 37.588 60.912 38.0573 61.232C38.5266 61.5307 38.9746 61.68 39.4013 61.68C39.4013 61.68 39.444 61.68 39.5293 61.68C39.6146 61.68 39.6573 61.68 39.6573 61.68V62H33.0973V61.68H33.3533C33.716 61.68 34.0466 61.5093 34.3453 61.168C34.644 60.8053 34.676 60.304 34.4413 59.664Z" fill="white"/>
<path d="M45.164 42.8H49.292C50.2947 42.8 51.1907 42.9173 51.98 43.152C52.7907 43.3867 53.4734 43.728 54.028 44.176C54.604 44.624 55.0414 45.168 55.34 45.808C55.6387 46.448 55.788 47.1733 55.788 47.984C55.788 48.88 55.5747 49.712 55.148 50.48C54.7214 51.248 54.124 51.8773 53.356 52.368C52.6094 52.8587 51.756 53.1573 50.796 53.264C51.1587 53.4133 51.5747 53.744 52.044 54.256C52.5347 54.768 52.9507 55.2693 53.292 55.76C53.292 55.76 53.4307 55.952 53.708 56.336C53.9854 56.6987 54.3374 57.1573 54.764 57.712C55.212 58.2453 55.6494 58.7573 56.076 59.248C56.524 59.7387 56.9294 60.1653 57.292 60.528C57.676 60.8907 58.0814 61.1787 58.508 61.392C58.956 61.584 59.468 61.68 60.044 61.68V62H59.052C57.8787 62 56.908 61.8507 56.14 61.552C55.3934 61.2533 54.7854 60.8907 54.316 60.464C53.8467 60.016 53.4414 59.5893 53.1 59.184C53.0147 59.0773 52.812 58.8107 52.492 58.384C52.1934 57.936 51.8627 57.456 51.5 56.944C51.1374 56.432 50.8067 55.9733 50.508 55.568C50.2094 55.1413 50.028 54.8853 49.964 54.8C49.5374 54.2453 49.0467 53.7547 48.492 53.328C47.9374 52.88 47.3507 52.656 46.732 52.656V52.336C46.732 52.336 46.9027 52.3467 47.244 52.368C47.5854 52.368 48.0227 52.3573 48.556 52.336C49.1534 52.3147 49.7507 52.272 50.348 52.208C50.9454 52.1227 51.5 51.888 52.012 51.504C52.5454 51.12 52.9614 50.48 53.26 49.584C53.3454 49.3493 53.4094 49.072 53.452 48.752C53.4947 48.432 53.5054 48.1013 53.484 47.76C53.4627 47.1627 53.3454 46.6293 53.132 46.16C52.94 45.6907 52.652 45.2853 52.268 44.944C51.9054 44.6027 51.468 44.336 50.956 44.144C50.444 43.952 49.868 43.8453 49.228 43.824C48.2254 43.7813 47.3507 43.7707 46.604 43.792C45.8574 43.8133 45.484 43.8133 45.484 43.792C45.484 43.7707 45.452 43.6853 45.388 43.536C45.3454 43.3653 45.292 43.2053 45.228 43.056C45.1854 42.8853 45.164 42.8 45.164 42.8ZM45.548 42.8V62H43.5V42.8H45.548ZM43.596 59.952L43.98 62H41.26V61.68C41.26 61.68 41.3347 61.68 41.484 61.68C41.6334 61.68 41.708 61.68 41.708 61.68C42.22 61.68 42.6467 61.5093 42.988 61.168C43.3294 60.8267 43.5107 60.4213 43.532 59.952H43.596ZM43.596 44.816H43.532C43.5107 44.3253 43.3294 43.92 42.988 43.6C42.6467 43.28 42.22 43.12 41.708 43.12C41.708 43.12 41.6334 43.12 41.484 43.12C41.3347 43.12 41.26 43.12 41.26 43.12V42.8H43.98L43.596 44.816ZM45.452 59.952H45.548C45.5694 60.4213 45.7507 60.8267 46.092 61.168C46.4334 61.5093 46.86 61.68 47.372 61.68C47.372 61.68 47.436 61.68 47.564 61.68C47.7134 61.68 47.788 61.68 47.788 61.68L47.82 62H45.068L45.452 59.952Z" fill="white"/>
<path d="M64.0425 42.8H67.8505C68.4265 42.8 69.0879 42.8533 69.8345 42.96C70.6025 43.0667 71.3385 43.28 72.0425 43.6C72.7465 43.92 73.3332 44.4 73.8025 45.04C74.2719 45.68 74.5065 46.5333 74.5065 47.6C74.5065 48.24 74.3359 48.8373 73.9945 49.392C73.6532 49.9467 73.2159 50.416 72.6825 50.8C72.1492 51.1627 71.5839 51.4187 70.9865 51.568C72.0319 51.6747 72.9492 51.9733 73.7385 52.464C74.5492 52.9333 75.1892 53.5307 75.6585 54.256C76.1279 54.9813 76.3625 55.7707 76.3625 56.624C76.3625 57.6693 76.1385 58.544 75.6905 59.248C75.2639 59.9307 74.6985 60.4747 73.9945 60.88C73.2905 61.2853 72.5225 61.5733 71.6905 61.744C70.8585 61.9147 70.0479 62 69.2585 62H65.3545C65.3545 62 65.3545 61.9253 65.3545 61.776C65.3759 61.6053 65.3865 61.4453 65.3865 61.296C65.3865 61.1253 65.3865 61.04 65.3865 61.04H69.2265C70.1439 61.04 70.9652 60.8907 71.6905 60.592C72.4372 60.272 73.0239 59.7813 73.4505 59.12C73.8772 58.4587 74.0905 57.6267 74.0905 56.624C74.0905 55.6 73.8665 54.7787 73.4185 54.16C72.9705 53.52 72.3839 53.04 71.6585 52.72C70.9332 52.3787 70.1332 52.1547 69.2585 52.048C68.3839 51.92 67.5092 51.856 66.6345 51.856V51.536C67.2105 51.536 67.8292 51.4933 68.4905 51.408C69.1519 51.3227 69.7599 51.152 70.3145 50.896C70.8905 50.6187 71.3599 50.224 71.7225 49.712C72.0852 49.1787 72.2665 48.4747 72.2665 47.6C72.2665 46.256 71.8719 45.2853 71.0825 44.688C70.2932 44.0693 69.2052 43.76 67.8185 43.76H64.3305C64.3305 43.7387 64.2985 43.6533 64.2345 43.504C64.1919 43.3333 64.1492 43.1733 64.1065 43.024C64.0639 42.8747 64.0425 42.8 64.0425 42.8ZM65.6425 42.8V62H63.6265V42.8H65.6425ZM63.7225 59.952V62H61.3225V61.68C61.3225 61.68 61.3865 61.68 61.5145 61.68C61.6425 61.68 61.7065 61.68 61.7065 61.68C62.2612 61.68 62.7092 61.5093 63.0505 61.168C63.4132 60.8267 63.6052 60.4213 63.6265 59.952H63.7225ZM63.7225 44.848H63.6265C63.6052 44.336 63.4132 43.92 63.0505 43.6C62.7092 43.28 62.2612 43.12 61.7065 43.12C61.7065 43.12 61.6425 43.12 61.5145 43.12C61.3865 43.12 61.3225 43.12 61.3225 43.12V42.8H63.7225V44.848Z" fill="white"/>
<path d="M83.9245 42.8V62H81.8765V42.8H83.9245ZM92.5325 61.008L92.4685 62H83.8605V61.008H92.5325ZM91.0285 51.92V52.88H83.8605V51.92H91.0285ZM92.5005 42.8V43.792H83.8605V42.8H92.5005ZM94.3245 57.424L92.5645 62H87.7005L88.7885 61.008C89.8552 61.008 90.7085 60.8587 91.3485 60.56C92.0099 60.24 92.5432 59.8133 92.9485 59.28C93.3539 58.7253 93.7059 58.1067 94.0045 57.424H94.3245ZM91.0285 52.816V54.64H90.6765V54.224C90.6765 53.8613 90.5699 53.552 90.3565 53.296C90.1432 53.0187 89.8125 52.88 89.3645 52.88V52.816H91.0285ZM91.0285 50.16V51.984H89.3645V51.92C89.8125 51.92 90.1432 51.792 90.3565 51.536C90.5699 51.2587 90.6765 50.9387 90.6765 50.576V50.16H91.0285ZM92.5005 43.696V45.904H92.1485V45.424C92.1485 44.976 91.9992 44.592 91.7005 44.272C91.4232 43.952 91.0392 43.792 90.5485 43.792V43.696H92.5005ZM92.5005 42.288V43.12L88.8525 42.8C89.5139 42.8 90.2179 42.7467 90.9645 42.64C91.7112 42.512 92.2232 42.3947 92.5005 42.288ZM81.9405 59.952L82.3565 62H79.5725V61.68C79.5725 61.68 79.6472 61.68 79.7965 61.68C79.9459 61.68 80.0205 61.68 80.0205 61.68C80.5539 61.68 80.9912 61.5093 81.3325 61.168C81.6739 60.8267 81.8552 60.4213 81.8765 59.952H81.9405ZM81.9405 44.816H81.8765C81.8552 44.3253 81.6739 43.92 81.3325 43.6C80.9912 43.28 80.5539 43.12 80.0205 43.12C80.0205 43.12 79.9459 43.12 79.7965 43.12C79.6472 43.12 79.5725 43.12 79.5725 43.12V42.8H82.3565L81.9405 44.816Z" fill="white"/>
<path d="M100.633 42.8H104.761C105.763 42.8 106.659 42.9173 107.449 43.152C108.259 43.3867 108.942 43.728 109.497 44.176C110.073 44.624 110.51 45.168 110.809 45.808C111.107 46.448 111.257 47.1733 111.257 47.984C111.257 48.88 111.043 49.712 110.617 50.48C110.19 51.248 109.593 51.8773 108.825 52.368C108.078 52.8587 107.225 53.1573 106.265 53.264C106.627 53.4133 107.043 53.744 107.513 54.256C108.003 54.768 108.419 55.2693 108.761 55.76C108.761 55.76 108.899 55.952 109.177 56.336C109.454 56.6987 109.806 57.1573 110.233 57.712C110.681 58.2453 111.118 58.7573 111.545 59.248C111.993 59.7387 112.398 60.1653 112.761 60.528C113.145 60.8907 113.55 61.1787 113.977 61.392C114.425 61.584 114.937 61.68 115.513 61.68V62H114.521C113.347 62 112.377 61.8507 111.609 61.552C110.862 61.2533 110.254 60.8907 109.785 60.464C109.315 60.016 108.91 59.5893 108.569 59.184C108.483 59.0773 108.281 58.8107 107.961 58.384C107.662 57.936 107.331 57.456 106.969 56.944C106.606 56.432 106.275 55.9733 105.977 55.568C105.678 55.1413 105.497 54.8853 105.433 54.8C105.006 54.2453 104.515 53.7547 103.961 53.328C103.406 52.88 102.819 52.656 102.201 52.656V52.336C102.201 52.336 102.371 52.3467 102.713 52.368C103.054 52.368 103.491 52.3573 104.025 52.336C104.622 52.3147 105.219 52.272 105.817 52.208C106.414 52.1227 106.969 51.888 107.481 51.504C108.014 51.12 108.43 50.48 108.729 49.584C108.814 49.3493 108.878 49.072 108.921 48.752C108.963 48.432 108.974 48.1013 108.953 47.76C108.931 47.1627 108.814 46.6293 108.601 46.16C108.409 45.6907 108.121 45.2853 107.737 44.944C107.374 44.6027 106.937 44.336 106.425 44.144C105.913 43.952 105.337 43.8453 104.697 43.824C103.694 43.7813 102.819 43.7707 102.073 43.792C101.326 43.8133 100.953 43.8133 100.953 43.792C100.953 43.7707 100.921 43.6853 100.857 43.536C100.814 43.3653 100.761 43.2053 100.697 43.056C100.654 42.8853 100.633 42.8 100.633 42.8ZM101.017 42.8V62H98.9688V42.8H101.017ZM99.0648 59.952L99.4488 62H96.7288V61.68C96.7288 61.68 96.8035 61.68 96.9528 61.68C97.1021 61.68 97.1768 61.68 97.1768 61.68C97.6888 61.68 98.1155 61.5093 98.4568 61.168C98.7981 60.8267 98.9795 60.4213 99.0008 59.952H99.0648ZM99.0648 44.816H99.0008C98.9795 44.3253 98.7981 43.92 98.4568 43.6C98.1155 43.28 97.6888 43.12 97.1768 43.12C97.1768 43.12 97.1021 43.12 96.9528 43.12C96.8035 43.12 96.7288 43.12 96.7288 43.12V42.8H99.4488L99.0648 44.816ZM100.921 59.952H101.017C101.038 60.4213 101.219 60.8267 101.561 61.168C101.902 61.5093 102.329 61.68 102.841 61.68C102.841 61.68 102.905 61.68 103.033 61.68C103.182 61.68 103.257 61.68 103.257 61.68L103.289 62H100.537L100.921 59.952Z" fill="white"/>
<path d="M131.063 39.152C131.405 39.152 131.767 39.1733 132.151 39.216C132.557 39.2587 132.941 39.3227 133.303 39.408C133.687 39.472 134.029 39.5467 134.327 39.632C134.647 39.696 134.893 39.7707 135.063 39.856V43.408H134.775C134.775 42.384 134.423 41.584 133.719 41.008C133.015 40.4107 132.162 40.112 131.159 40.112C129.986 40.112 129.037 40.4853 128.311 41.232C127.586 41.9573 127.223 42.8107 127.223 43.792C127.223 44.1973 127.309 44.6773 127.479 45.232C127.671 45.7653 128.013 46.2667 128.503 46.736L134.807 52.56C135.447 53.1573 135.874 53.7973 136.087 54.48C136.301 55.1627 136.407 55.824 136.407 56.464C136.407 58.2347 135.863 59.6747 134.775 60.784C133.709 61.8933 132.258 62.448 130.423 62.448C129.911 62.448 129.303 62.3947 128.599 62.288C127.917 62.1813 127.245 62 126.583 61.744C125.943 61.4667 125.41 61.1147 124.983 60.688C124.919 60.3467 124.887 59.92 124.887 59.408C124.887 58.896 124.93 58.3627 125.015 57.808C125.101 57.232 125.218 56.7093 125.367 56.24H125.655C125.549 57.328 125.687 58.2773 126.071 59.088C126.455 59.8987 127.01 60.5173 127.735 60.944C128.482 61.3493 129.325 61.5307 130.263 61.488C131.437 61.424 132.439 61.0187 133.271 60.272C134.125 59.504 134.551 58.48 134.551 57.2C134.551 56.5813 134.445 56.0267 134.231 55.536C134.018 55.024 133.709 54.5867 133.303 54.224L127.159 48.528C126.519 47.9307 126.071 47.28 125.815 46.576C125.559 45.8507 125.431 45.1787 125.431 44.56C125.431 43.664 125.645 42.8 126.071 41.968C126.498 41.136 127.127 40.464 127.959 39.952C128.813 39.4187 129.847 39.152 131.063 39.152ZM135.063 39.472V40.144H132.631V39.472H135.063Z" fill="white"/>
<path d="M158.123 42.8V62H156.075V42.8H158.123ZM144.267 42.8V62H142.219V42.8H144.267ZM156.395 52.048V53.008H143.915V52.048H156.395ZM142.315 59.952V62H139.979V61.68C139.979 61.68 140.043 61.68 140.171 61.68C140.299 61.68 140.363 61.68 140.363 61.68C140.875 61.68 141.301 61.5093 141.643 61.168C142.005 60.8267 142.197 60.4213 142.219 59.952H142.315ZM144.171 59.952H144.267C144.267 60.4213 144.448 60.8267 144.811 61.168C145.173 61.5093 145.611 61.68 146.123 61.68C146.123 61.68 146.187 61.68 146.315 61.68C146.443 61.68 146.507 61.68 146.507 61.68V62H144.171V59.952ZM144.171 44.848V42.8H146.507V43.12C146.507 43.12 146.443 43.12 146.315 43.12C146.187 43.12 146.123 43.12 146.123 43.12C145.611 43.12 145.173 43.2907 144.811 43.632C144.448 43.952 144.267 44.3573 144.267 44.848H144.171ZM142.315 44.848H142.219C142.197 44.3573 142.005 43.952 141.643 43.632C141.301 43.2907 140.875 43.12 140.363 43.12C140.363 43.12 140.299 43.12 140.171 43.12C140.043 43.12 139.979 43.12 139.979 43.12V42.8H142.315V44.848ZM156.171 59.952V62H153.835V61.68C153.835 61.68 153.899 61.68 154.027 61.68C154.155 61.68 154.219 61.68 154.219 61.68C154.731 61.68 155.157 61.5093 155.499 61.168C155.861 60.8267 156.053 60.4213 156.075 59.952H156.171ZM158.027 59.952H158.123C158.144 60.4213 158.325 60.8267 158.667 61.168C159.029 61.5093 159.467 61.68 159.979 61.68C159.979 61.68 160.043 61.68 160.171 61.68C160.299 61.68 160.363 61.68 160.363 61.68V62H158.027V59.952ZM158.027 44.848V42.8H160.363V43.12C160.363 43.12 160.299 43.12 160.171 43.12C160.043 43.12 159.979 43.12 159.979 43.12C159.467 43.12 159.029 43.2907 158.667 43.632C158.325 43.952 158.144 44.3573 158.123 44.848H158.027ZM156.171 44.848H156.075C156.053 44.3573 155.861 43.952 155.499 43.632C155.157 43.2907 154.731 43.12 154.219 43.12C154.219 43.12 154.155 43.12 154.027 43.12C153.899 43.12 153.835 43.12 153.835 43.12V42.8H156.171V44.848Z" fill="white"/>
<path d="M174.009 42.352C175.502 42.352 176.9 42.5973 178.201 43.088C179.524 43.5573 180.676 44.24 181.657 45.136C182.66 46.032 183.438 47.0987 183.993 48.336C184.548 49.552 184.825 50.9067 184.825 52.4C184.825 53.8933 184.548 55.2587 183.993 56.496C183.438 57.712 182.66 58.768 181.657 59.664C180.676 60.56 179.524 61.2533 178.201 61.744C176.9 62.2133 175.502 62.448 174.009 62.448C172.516 62.448 171.118 62.2133 169.817 61.744C168.516 61.2533 167.364 60.56 166.361 59.664C165.38 58.768 164.612 57.712 164.057 56.496C163.502 55.2587 163.225 53.8933 163.225 52.4C163.225 50.9067 163.502 49.552 164.057 48.336C164.612 47.0987 165.38 46.032 166.361 45.136C167.364 44.24 168.516 43.5573 169.817 43.088C171.118 42.5973 172.516 42.352 174.009 42.352ZM174.009 61.488C175.588 61.488 177.017 61.104 178.297 60.336C179.577 59.568 180.59 58.5013 181.337 57.136C182.084 55.7707 182.457 54.192 182.457 52.4C182.457 50.5867 182.084 49.008 181.337 47.664C180.59 46.2987 179.577 45.232 178.297 44.464C177.017 43.696 175.588 43.312 174.009 43.312C172.452 43.312 171.033 43.696 169.753 44.464C168.473 45.232 167.46 46.2987 166.713 47.664C165.966 49.008 165.593 50.5867 165.593 52.4C165.593 54.192 165.966 55.7707 166.713 57.136C167.46 58.5013 168.473 59.568 169.753 60.336C171.033 61.104 172.452 61.488 174.009 61.488Z" fill="white"/>
<path d="M191.634 42.8H195.186C196.679 42.8 197.97 43.024 199.058 43.472C200.146 43.8987 200.988 44.528 201.586 45.36C202.183 46.1707 202.482 47.1413 202.482 48.272C202.482 49.488 202.204 50.5333 201.65 51.408C201.116 52.2613 200.402 52.9227 199.506 53.392C198.61 53.84 197.618 54.064 196.53 54.064C195.442 54.0427 194.354 53.7653 193.266 53.232V52.912C193.266 52.912 193.436 52.944 193.778 53.008C194.14 53.072 194.599 53.104 195.154 53.104C195.708 53.0827 196.295 52.9867 196.914 52.816C197.532 52.624 198.108 52.2827 198.642 51.792C199.196 51.3013 199.634 50.5973 199.954 49.68C200.039 49.4453 200.092 49.168 200.114 48.848C200.156 48.528 200.178 48.2293 200.178 47.952C200.178 46.6507 199.73 45.6267 198.834 44.88C197.938 44.1333 196.7 43.76 195.122 43.76H191.986C191.986 43.76 191.954 43.6853 191.89 43.536C191.847 43.3653 191.794 43.2053 191.73 43.056C191.666 42.8853 191.634 42.8 191.634 42.8ZM192.05 42.8V62H190.002V42.8H192.05ZM190.066 59.952L190.482 62H187.698V61.68C187.698 61.68 187.772 61.68 187.922 61.68C188.071 61.68 188.146 61.68 188.146 61.68C188.658 61.68 189.084 61.5093 189.426 61.168C189.788 60.8267 189.98 60.4213 190.002 59.952H190.066ZM190.066 44.816H190.002C189.98 44.3253 189.788 43.92 189.426 43.6C189.084 43.28 188.658 43.12 188.146 43.12C188.146 43.12 188.071 43.12 187.922 43.12C187.772 43.12 187.698 43.12 187.698 43.12V42.8H190.482L190.066 44.816ZM191.954 59.952H192.018C192.039 60.4213 192.22 60.8267 192.562 61.168C192.924 61.5093 193.362 61.68 193.874 61.68C193.895 61.68 193.97 61.68 194.098 61.68C194.247 61.68 194.322 61.68 194.322 61.68V62H191.538L191.954 59.952Z" fill="white"/>
</g>
<path id="icon:1_1_ (Stroke)" fill-rule="evenodd" clip-rule="evenodd" d="M124.046 25.2682L132 10.0305L124.046 11.5317L123.725 11.4598C123.807 11.6534 123.875 11.8546 123.927 12.0621C124.005 12.3731 124.046 12.6983 124.046 13.0333C124.046 13.2163 124.034 13.3964 124.01 13.5731C123.74 15.5744 121.993 17.1259 119.876 17.1259C117.571 17.1259 115.706 15.2884 115.706 13.0333C115.706 11.7182 116.339 10.5416 117.324 9.7938L114.625 5.75247L110.634 8.08831C110.85 8.75763 110.912 9.54439 110.779 10.3551C110.433 12.4631 108.904 13.9793 107.363 13.745C105.84 13.5073 104.875 11.6487 105.186 9.56514C105.19 9.54025 105.194 9.51532 105.198 9.49037C105.287 8.94086 105.457 8.4333 105.688 7.98403C105.74 7.8829 105.795 7.78473 105.853 7.6897C105.861 7.67643 105.869 7.66322 105.878 7.65007L105.745 7.62893L107.598 4.32644L102.038 0.0328791L102.001 0L101.961 0.0328791L96.4012 4.32644L98.2547 7.62893L98.122 7.65007C98.1302 7.66321 98.1384 7.67641 98.1465 7.68967C98.2042 7.7844 98.2592 7.88228 98.3111 7.98311C98.5425 8.43246 98.7133 8.94057 98.8017 9.49037C98.8058 9.51532 98.8097 9.54025 98.8134 9.56514C99.1247 11.6487 98.1596 13.5078 96.6366 13.745C95.0953 13.9789 93.5662 12.4627 93.2203 10.3551C93.0877 9.54439 93.1495 8.75763 93.3656 8.08831L89.3747 5.75247L86.6752 9.7938C87.6605 10.5411 88.2937 11.7182 88.2937 13.0333C88.2937 15.2884 86.4281 17.1259 84.1237 17.1259C82.0063 17.1259 80.2593 15.5744 79.9898 13.5731C79.966 13.3964 79.9538 13.2163 79.9538 13.0333C79.9538 12.6984 79.9949 12.373 80.0724 12.062C80.1242 11.8544 80.1921 11.6533 80.2748 11.4598L79.9538 11.5317L72 10.0305L79.9538 25.2677H80.0681V31H123.929V25.2682H124.046ZM121.929 29V23.2682H122.834L128.319 12.7606L126.044 13.1899C125.959 16.5088 123.199 19.1259 119.876 19.1259C116.5 19.1259 113.706 16.4261 113.706 13.0333C113.706 11.7552 114.105 10.5687 114.784 9.59074L114.009 8.43053L112.838 9.11565C112.867 9.62906 112.839 10.1543 112.753 10.6781C112.519 12.1056 111.874 13.4095 110.928 14.3483C109.985 15.2841 108.614 15.9582 107.062 15.7222L107.055 15.7211C105.499 15.4783 104.397 14.4178 103.791 13.2278C103.196 12.0611 102.998 10.6524 103.211 9.25045L102.596 9.15253L105.009 4.85375L102 2.52996L98.9906 4.85375L101.403 9.15251L100.789 9.25044C101.002 10.6524 100.803 12.0612 100.209 13.2279C99.603 14.4179 98.5008 15.4787 96.9443 15.7211L96.9367 15.7223C95.3854 15.9577 94.0148 15.2836 93.0716 14.3479C92.1255 13.4093 91.481 12.1064 91.2467 10.679C91.161 10.155 91.133 9.62884 91.1617 9.11574L89.991 8.43053L89.216 9.59063C89.8942 10.5687 90.2937 11.7555 90.2937 13.0333C90.2937 16.4261 87.4993 19.1259 84.1237 19.1259C80.8003 19.1259 78.0401 16.5088 77.9557 13.1899L75.6812 12.7606L81.1658 23.2677H82.0681V29H121.929Z" fill="#BD9964"/>
<line id="Line 1" x1="4.37114e-08" y1="18.5" x2="60" y2="18.5" stroke="#BD9964"/>
<line id="Line 2" x1="144" y1="18.5" x2="204" y2="18.5" stroke="#BD9964"/>
</g>
</svg>
