<svg width="32" height="32" viewBox="0 0 32 32" fill="none" xmlns="http://www.w3.org/2000/svg">
<path d="M6.6439 9.596C8.25509 9.596 9.56123 8.28987 9.56123 6.67867C9.56123 5.06747 8.25509 3.76133 6.6439 3.76133C5.0327 3.76133 3.72656 5.06747 3.72656 6.67867C3.72656 8.28987 5.0327 9.596 6.6439 9.596Z" fill="#BD9964"/>
<path d="M12.316 11.8067V27.992H17.3414V19.988C17.3414 17.876 17.7387 15.8307 20.3574 15.8307C22.94 15.8307 22.972 18.2453 22.972 20.1213V27.9933H28V19.1173C28 14.7573 27.0614 11.4067 21.9654 11.4067C19.5187 11.4067 17.8787 12.7493 17.208 14.02H17.14V11.8067H12.316ZM4.12671 11.8067H9.16004V27.992H4.12671V11.8067Z" fill="#BD9964"/>
</svg>
