<svg width="24" height="24" viewBox="0 0 24 24" fill="none" xmlns="http://www.w3.org/2000/svg">
<path d="M20.3595 19.3901V5.81698C20.3595 4.74762 19.4899 3.87797 18.4205 3.87797H16.4815V1.93896H14.5425V3.87797H8.72548V1.93896H6.78647V3.87797H4.84746C3.77809 3.87797 2.90845 4.74762 2.90845 5.81698V19.3901C2.90845 20.4594 3.77809 21.3291 4.84746 21.3291H18.4205C19.4899 21.3291 20.3595 20.4594 20.3595 19.3901ZM8.72548 17.451H6.78647V15.512H8.72548V17.451ZM8.72548 13.573H6.78647V11.634H8.72548V13.573ZM12.6035 17.451H10.6645V15.512H12.6035V17.451ZM12.6035 13.573H10.6645V11.634H12.6035V13.573ZM16.4815 17.451H14.5425V15.512H16.4815V17.451ZM16.4815 13.573H14.5425V11.634H16.4815V13.573ZM18.4205 8.7255H4.84746V6.78649H18.4205V8.7255Z" fill="#BD9964"/>
</svg>
