<svg width="24" height="24" viewBox="0 0 24 24" fill="none" xmlns="http://www.w3.org/2000/svg">
<g clip-path="url(#clip0_43_216)">
<path d="M16.6387 23.2681H6.62953C6.1984 23.2676 5.78511 23.096 5.48044 22.7909C5.17577 22.4859 5.00464 22.0724 5.00464 21.6413V1.62683C5.00464 1.1957 5.17577 0.782206 5.48044 0.477172C5.78511 0.172138 6.1984 0.000513857 6.62953 0L16.6387 0C17.0698 0.000513857 17.4831 0.172138 17.7878 0.477172C18.0925 0.782206 18.2636 1.1957 18.2636 1.62683V21.6413C18.2636 22.0724 18.0925 22.4859 17.7878 22.7909C17.4831 23.096 17.0698 23.2676 16.6387 23.2681ZM6.62953 0.750397C6.39742 0.75091 6.17499 0.843475 6.01105 1.00778C5.84711 1.17209 5.75504 1.39472 5.75504 1.62683V21.6413C5.75504 21.8734 5.84711 22.096 6.01105 22.2603C6.17499 22.4246 6.39742 22.5172 6.62953 22.5177H16.6387C16.8708 22.5172 17.0932 22.4246 17.2572 22.2603C17.4211 22.096 17.5132 21.8734 17.5132 21.6413V1.62683C17.5132 1.39472 17.4211 1.17209 17.2572 1.00778C17.0932 0.843475 16.8708 0.75091 16.6387 0.750397H6.62953Z" fill="#BD9964"/>
<path d="M14.2905 2.00101H8.97764L7.61646 0.639823L8.1458 0.110474L9.28788 1.25061H13.9803L15.1224 0.110474L15.6517 0.639823L14.2905 2.00101Z" fill="#BD9964"/>
<path d="M14.1374 20.0164H9.13281V20.7668H14.1374V20.0164Z" fill="#BD9964"/>
</g>
<defs>
<clipPath id="clip0_43_216">
<rect width="23.2681" height="23.2681" fill="white"/>
</clipPath>
</defs>
</svg>
