<svg width="21" height="21" viewBox="0 0 21 21" fill="none" xmlns="http://www.w3.org/2000/svg">
<path d="M18.3427 14.2372C18.0696 13.6644 17.6461 13.1765 17.1174 12.8256C16.5887 12.4747 15.9746 12.2738 15.3408 12.2446C14.7069 12.2153 14.0769 12.3587 13.5181 12.6594C12.9593 12.9601 12.4927 13.4069 12.1679 13.9521L11.6695 13.1548L12.0849 12.8951C12.1491 12.8549 12.1947 12.7908 12.2117 12.717C12.2287 12.6432 12.2156 12.5656 12.1754 12.5014L12.0188 12.2513L16.91 4.42693C17.0462 4.21016 17.1382 3.96865 17.1807 3.71624C17.2233 3.46384 17.2156 3.20551 17.1582 2.95608V2.95412C17.0413 2.45275 16.7314 2.01768 16.2958 1.74331C16.2145 1.69199 16.1238 1.65724 16.029 1.64106C15.9342 1.62487 15.8372 1.62758 15.7435 1.64901C15.6497 1.67045 15.5611 1.71019 15.4828 1.76596C15.4044 1.82173 15.3379 1.89243 15.287 1.97399L10.4408 9.7263L5.5956 1.97513C5.54465 1.89322 5.47799 1.82221 5.39945 1.7662C5.32091 1.7102 5.23206 1.6703 5.13802 1.64883C5.04397 1.62735 4.94661 1.62471 4.85155 1.64107C4.75648 1.65743 4.6656 1.69245 4.58414 1.74413C4.14716 2.01874 3.83711 2.45563 3.72214 2.95877C3.60718 3.46191 3.69672 3.99011 3.97107 4.42726L8.86243 12.2517L8.70615 12.5018C8.66596 12.566 8.65292 12.6435 8.6699 12.7173C8.68688 12.7912 8.73249 12.8552 8.79669 12.8954L9.21204 13.1551L8.71365 13.9524C8.32276 13.2955 7.72785 12.7843 7.01955 12.4968C6.31125 12.2093 5.52838 12.1611 4.7902 12.3597C4.05202 12.5583 3.39898 12.9928 2.93056 13.5969C2.46215 14.201 2.20403 14.9416 2.19553 15.706C2.18703 16.4704 2.42861 17.2166 2.88347 17.831C3.33833 18.4454 3.98154 18.8942 4.71512 19.1092C5.4487 19.3242 6.23245 19.2935 6.94697 19.0218C7.66149 18.7501 8.26762 18.2523 8.67303 17.6042L10.4408 14.7757L12.2084 17.6037C12.4697 18.0213 12.816 18.3791 13.2248 18.654C13.6336 18.9288 14.0958 19.1144 14.5811 19.1987C14.7771 19.2328 14.9756 19.2498 15.1746 19.2498C15.7668 19.2506 16.3495 19.1014 16.8684 18.816C17.3873 18.5306 17.8254 18.1183 18.1418 17.6177C18.4582 17.1171 18.6425 16.5445 18.6777 15.9534C18.7128 15.3622 18.5976 14.7718 18.3427 14.2372ZM4.45608 4.1248C4.35985 3.97183 4.29471 3.8014 4.26437 3.62325C4.23403 3.44509 4.2391 3.2627 4.27928 3.08651C4.31946 2.91031 4.39396 2.74376 4.49853 2.59637C4.6031 2.44898 4.73569 2.32364 4.88872 2.22751C4.90644 2.21599 4.92627 2.20811 4.94706 2.20434C4.96786 2.20056 4.98919 2.20096 5.00983 2.20552C5.03046 2.21007 5.04999 2.21869 5.06726 2.23087C5.08453 2.24305 5.0992 2.25854 5.11043 2.27645L10.1042 10.265L9.19915 11.7133L4.45608 4.1248ZM8.18949 17.3013C7.83997 17.8594 7.31278 18.2838 6.6928 18.5059C6.07282 18.728 5.39613 18.735 4.77167 18.5258C4.14721 18.3166 3.61133 17.9034 3.25029 17.3526C2.88926 16.8018 2.72408 16.1455 2.78136 15.4894C2.83863 14.8334 3.11503 14.2157 3.56604 13.7358C4.01706 13.2559 4.61645 12.9417 5.26771 12.8439C5.91897 12.746 6.58421 12.8702 7.15632 13.1964C7.72843 13.5226 8.17412 14.0318 8.42163 14.6421C8.44146 14.6907 8.4743 14.7329 8.51654 14.764C8.55878 14.7951 8.60878 14.814 8.66105 14.8186C8.71332 14.8231 8.76583 14.8132 8.81282 14.7898C8.8598 14.7665 8.89944 14.7306 8.92736 14.6862L9.84746 13.2147C9.88758 13.1505 9.90056 13.0729 9.88355 12.9992C9.86654 12.9254 9.82094 12.8614 9.75675 12.8212L9.34173 12.5616L15.7716 2.27628C15.7943 2.2407 15.8302 2.21556 15.8714 2.20638C15.9126 2.19721 15.9557 2.20474 15.9914 2.22734C16.1446 2.32336 16.2774 2.44864 16.3822 2.59603C16.487 2.74341 16.5617 2.91001 16.602 3.08628C16.6423 3.26256 16.6475 3.44506 16.6173 3.62334C16.587 3.80162 16.5219 3.97219 16.4257 4.12529L8.18949 17.3013ZM17.0086 18.0393C16.6853 18.2973 16.3112 18.484 15.9107 18.5872C15.5102 18.6903 15.0925 18.7076 14.6848 18.6379C14.2772 18.5682 13.8889 18.413 13.5455 18.1827C13.202 17.9523 12.9112 17.6518 12.6921 17.3011L10.7775 14.2372L11.2252 13.5212L11.9541 14.687C11.9819 14.7316 12.0216 14.7677 12.0687 14.7912C12.1157 14.8147 12.1684 14.8247 12.2208 14.8202C12.2732 14.8156 12.3234 14.7966 12.3657 14.7654C12.408 14.7341 12.4409 14.6917 12.4606 14.6429C12.6292 14.2273 12.8909 13.8558 13.2256 13.5571C13.5602 13.2584 13.9589 13.0404 14.391 12.9199C14.8231 12.7995 15.277 12.7797 15.718 12.8621C16.1589 12.9445 16.5751 13.1269 16.9345 13.3953C17.2938 13.6638 17.5869 14.011 17.7911 14.4104C17.9952 14.8099 18.1051 15.2508 18.1122 15.6993C18.1193 16.1478 18.0234 16.592 17.832 16.9976C17.6405 17.4033 17.3586 17.7597 17.0079 18.0393H17.0086Z" fill="#BD9964"/>
<path d="M15.6693 13.6274C15.3211 13.5473 14.9585 13.5542 14.6136 13.6476C14.2687 13.741 13.9521 13.918 13.6919 14.1629C13.4318 14.4078 13.236 14.7131 13.1219 15.0518C13.0079 15.3904 12.9791 15.7519 13.0382 16.1044C13.0972 16.4568 13.2422 16.7892 13.4603 17.0722C13.6785 17.3552 13.9631 17.58 14.2889 17.7268C14.6146 17.8736 14.9716 17.9378 15.3281 17.9137C15.6846 17.8896 16.0297 17.778 16.3328 17.5888C16.6972 17.3608 16.9858 17.0299 17.1622 16.6379C17.3385 16.2459 17.3948 15.8105 17.3238 15.3866C17.2528 14.9626 17.0577 14.5693 16.7632 14.2562C16.4688 13.9431 16.0881 13.7243 15.6693 13.6274ZM16.0303 17.1044C15.8518 17.2181 15.6526 17.2953 15.4441 17.3316C15.2356 17.3679 15.022 17.3626 14.8155 17.3159C14.6091 17.2692 14.414 17.182 14.2414 17.0595C14.0688 16.937 13.9222 16.7816 13.8101 16.6021C13.6979 16.4226 13.6223 16.2227 13.5878 16.0139C13.5533 15.8051 13.5605 15.5916 13.6089 15.3856C13.6574 15.1795 13.7462 14.9852 13.8701 14.8136C13.9941 14.6421 14.1508 14.4968 14.3312 14.3862C14.5845 14.2266 14.8777 14.1418 15.1771 14.1415C15.2995 14.1416 15.4215 14.1556 15.5407 14.1833C15.8493 14.2548 16.1297 14.4162 16.3466 14.647C16.5636 14.8778 16.7073 15.1677 16.7596 15.4801C16.812 15.7925 16.7706 16.1133 16.6408 16.4023C16.511 16.6912 16.2985 16.9351 16.0302 17.1034L16.0303 17.1044Z" fill="#BD9964"/>
<path d="M6.85304 13.9019C6.48851 13.6749 6.06487 13.561 5.63563 13.5746C5.2064 13.5882 4.79082 13.7287 4.44141 13.9784C4.092 14.2281 3.82442 14.5757 3.67249 14.9774C3.52055 15.3791 3.49107 15.8168 3.58778 16.2352C3.68448 16.6536 3.90303 17.034 4.2158 17.3283C4.52858 17.6225 4.92156 17.8175 5.3451 17.8886C5.76864 17.9596 6.20373 17.9035 6.59541 17.7274C6.98709 17.5513 7.31779 17.2631 7.54573 16.8991C7.69711 16.6568 7.79928 16.3871 7.8464 16.1054C7.89351 15.8237 7.88466 15.5354 7.82033 15.2571C7.756 14.9788 7.63747 14.7158 7.4715 14.4833C7.30553 14.2508 7.09537 14.0533 6.85304 13.9021V13.9019ZM7.06153 16.5965C6.92167 16.8199 6.72888 17.0054 6.50022 17.1366C6.27157 17.2677 6.01411 17.3405 5.75063 17.3484C5.48715 17.3564 5.22578 17.2992 4.98965 17.182C4.75352 17.0649 4.54992 16.8913 4.39687 16.6767C4.24382 16.4621 4.14604 16.213 4.11218 15.9516C4.07833 15.6902 4.10944 15.4245 4.20277 15.1779C4.2961 14.9314 4.44877 14.7117 4.64726 14.5382C4.84576 14.3648 5.08395 14.2429 5.34076 14.1835C5.64984 14.1123 5.97311 14.1343 6.2697 14.2467C6.56628 14.3592 6.82288 14.557 7.00704 14.8153C7.19121 15.0735 7.29468 15.3806 7.30438 15.6976C7.31408 16.0146 7.22957 16.3274 7.06153 16.5965Z" fill="#BD9964"/>
<path d="M10.4408 12.4732C10.5984 12.4732 10.7263 12.3454 10.7263 12.1877C10.7263 12.03 10.5984 11.9022 10.4408 11.9022C10.2831 11.9022 10.1553 12.03 10.1553 12.1877C10.1553 12.3454 10.2831 12.4732 10.4408 12.4732Z" fill="#BD9964"/>
</svg>
