<svg width="24" height="24" viewBox="0 0 24 24" fill="none" xmlns="http://www.w3.org/2000/svg">
<path d="M12.6036 7.7561H10.6646V12.6036H15.5121V10.6646H12.6036V7.7561Z" fill="#BD9964"/>
<path d="M19.389 11.634C19.389 8.77107 17.8262 6.27265 15.512 4.92892V2.90847C15.512 2.65134 15.4099 2.40474 15.228 2.22293C15.0462 2.04111 14.7996 1.93896 14.5425 1.93896H8.72546C8.46833 1.93896 8.22174 2.04111 8.03992 2.22293C7.8581 2.40474 7.75596 2.65134 7.75596 2.90847V4.92795C5.44175 6.27168 3.87891 8.77107 3.87891 11.634C3.88007 13.0203 4.25262 14.3809 4.95782 15.5744C5.66301 16.7679 6.67508 17.7507 7.88878 18.4205H7.75596V20.3993C7.75596 20.6564 7.8581 20.903 8.03992 21.0849C8.22174 21.2667 8.46833 21.3688 8.72546 21.3688H14.5425C14.7996 21.3688 15.0462 21.2667 15.228 21.0849C15.4099 20.903 15.512 20.6564 15.512 20.3993V18.4205H15.3772C16.5915 17.7512 17.6041 16.7686 18.3097 15.575C19.0153 14.3814 19.388 13.0205 19.389 11.634ZM11.633 17.4501C10.0911 17.4483 8.61294 16.8349 7.52276 15.7445C6.43258 14.6542 5.81946 13.1759 5.81792 11.634C5.81946 10.0921 6.43258 8.61384 7.52276 7.52348C8.61294 6.43312 10.0911 5.81975 11.633 5.81795C14.8421 5.81795 17.45 8.42689 17.45 11.634C17.4485 13.1762 16.8351 14.6548 15.7445 15.7452C14.6539 16.8356 13.1752 17.4488 11.633 17.4501Z" fill="#BD9964"/>
</svg>
